<?xml version="1.0" encoding="utf-8"?>
<!-- Generator: Adobe Illustrator 22.0.0, SVG Export Plug-In . SVG Version: 6.00 Build 0)  -->
<svg version="1.1" id="Capa_1" xmlns="http://www.w3.org/2000/svg" xmlns:xlink="http://www.w3.org/1999/xlink" x="0px" y="0px"
	 viewBox="0 0 178.4 74.5" style="enable-background:new 0 0 178.4 74.5;" xml:space="preserve">
<style type="text/css">
	.st0{fill:#848484;}
</style>
<g>
	<path class="st0" d="M128.5,32.3c0.1,0.1,0.3,0.1,0.5,0.1c0.2,0,0.8-0.6,1.6-1.7c0.8-1.1,1.8-1.7,2.8-1.7c0.9,0,2.3,0.4,4.2,1.3
		c1.9,0.9,3.4,1.3,4.4,1.3c1.4,0,2.8-0.8,4-2.3c1.2-1.5,1.8-2.8,1.8-4c0-0.1-0.1-0.2-0.2-0.3c-0.1-0.1-0.3-0.1-0.5-0.1
		c-0.2,0-0.8,0.6-1.6,1.7c-0.8,1.1-1.7,1.7-2.8,1.7c-0.8,0-2.2-0.4-4.2-1.3c-2-0.9-3.4-1.3-4.4-1.3c-1.4,0-2.8,0.8-4,2.3
		c-1.2,1.5-1.8,2.8-1.8,4C128.3,32.1,128.4,32.2,128.5,32.3z"/>
	<path class="st0" d="M118.2,26.3c0.7,0,1.4-0.3,1.9-1c0.6-0.7,0.9-1.4,0.9-2.2c0-0.6-0.2-1.1-0.5-1.5c-0.3-0.4-0.8-0.6-1.4-0.6
		c-0.7,0-1.4,0.3-2,1c-0.6,0.7-0.9,1.4-0.9,2.2c0,0.6,0.2,1.1,0.6,1.5C117.1,26.1,117.6,26.3,118.2,26.3z"/>
	<path class="st0" d="M51.2,60.4v4.8H54c0.6,0,1.1-0.1,1.4-0.3c0.3-0.2,0.5-0.7,0.6-1.3h0.4v4.1H56c0-0.5-0.1-0.8-0.2-1
		c-0.1-0.2-0.4-0.4-0.6-0.5C54.9,66,54.5,66,54,66h-2.8v3.8c0,0.6,0,1,0.1,1.2c0.1,0.2,0.2,0.3,0.5,0.4c0.3,0.1,0.7,0.2,1,0.2h0.6
		v0.3h-6.6v-0.3h0.5c0.6,0,1.1-0.1,1.4-0.4c0.2-0.2,0.3-0.7,0.3-1.4v-7.9c0-0.6-0.1-1-0.1-1.2c-0.1-0.1-0.2-0.3-0.5-0.4
		c-0.3-0.1-0.7-0.2-1-0.2h-0.5v-0.3h11.4l0.1,2.7H58c-0.2-0.6-0.4-1-0.7-1.2c-0.3-0.3-0.6-0.5-1-0.6c-0.4-0.1-1-0.2-1.8-0.2H51.2
		L51.2,60.4z M63.6,59.2v10.9c0,0.5,0.1,0.9,0.1,1c0.1,0.2,0.2,0.3,0.4,0.4c0.2,0.1,0.6,0.1,1.1,0.1v0.3h-5.1v-0.3
		c0.5,0,0.8,0,1-0.1c0.2-0.1,0.3-0.2,0.4-0.4c0.1-0.2,0.1-0.5,0.1-1v-7.5c0-0.9,0-1.5-0.1-1.7c-0.1-0.2-0.1-0.4-0.3-0.4
		c-0.1-0.1-0.3-0.1-0.4-0.1c-0.2,0-0.4,0-0.7,0.1L60,60.2l3.1-1H63.6L63.6,59.2z M71.6,63.5c1.6,0,2.8,0.5,3.8,1.4
		c0.8,0.8,1.2,1.7,1.2,2.8c0,0.7-0.2,1.5-0.7,2.2c-0.4,0.8-1.1,1.3-1.8,1.7c-0.8,0.4-1.7,0.6-2.6,0.6c-1.6,0-2.8-0.5-3.7-1.5
		c-0.8-0.8-1.2-1.8-1.2-2.8c0-0.8,0.2-1.5,0.7-2.2c0.5-0.7,1.1-1.3,1.9-1.7C69.9,63.7,70.7,63.5,71.6,63.5L71.6,63.5z M71.2,64.1
		c-0.4,0-0.8,0.1-1.2,0.3c-0.4,0.2-0.7,0.5-1,1c-0.3,0.5-0.4,1.1-0.4,1.8c0,1.2,0.3,2.2,0.9,3.1c0.6,0.9,1.4,1.3,2.4,1.3
		c0.7,0,1.3-0.2,1.8-0.7c0.5-0.5,0.7-1.3,0.7-2.5c0-1.5-0.4-2.6-1.2-3.4C72.7,64.4,72,64.1,71.2,64.1L71.2,64.1z M81.1,63.5v1.9
		c0.9-1.2,1.8-1.9,2.7-1.9c0.4,0,0.8,0.1,1,0.3c0.3,0.2,0.4,0.4,0.4,0.7c0,0.2-0.1,0.4-0.3,0.6c-0.2,0.2-0.4,0.2-0.7,0.2
		c-0.3,0-0.6-0.1-0.9-0.3c-0.3-0.2-0.6-0.3-0.7-0.3c-0.1,0-0.3,0.1-0.4,0.2c-0.3,0.2-0.7,0.6-1.1,1.2V70c0,0.5,0.1,0.8,0.2,1
		c0.1,0.2,0.3,0.3,0.5,0.4c0.3,0.1,0.6,0.2,1.1,0.2v0.3h-5.3v-0.3c0.5,0,0.9-0.1,1.2-0.2c0.2-0.1,0.3-0.2,0.4-0.5
		c0-0.1,0.1-0.4,0.1-0.9v-3.2c0-1,0-1.5-0.1-1.7c0-0.2-0.1-0.3-0.3-0.4c-0.1-0.1-0.3-0.1-0.5-0.1c-0.2,0-0.5,0-0.8,0.1l-0.1-0.3
		l3.1-1H81.1L81.1,63.5z M88.5,59.2c0.3,0,0.6,0.1,0.8,0.3c0.2,0.2,0.3,0.4,0.3,0.6c0,0.3-0.1,0.5-0.3,0.6C89,60.9,88.8,61,88.5,61
		c-0.3,0-0.6-0.1-0.8-0.3c-0.2-0.2-0.3-0.4-0.3-0.6c0-0.3,0.1-0.5,0.3-0.6C87.9,59.3,88.1,59.2,88.5,59.2L88.5,59.2z M89.4,63.5v6.6
		c0,0.5,0,0.9,0.1,1c0.1,0.2,0.2,0.3,0.4,0.4c0.2,0.1,0.5,0.1,1,0.1v0.3h-5v-0.3c0.5,0,0.8,0,1-0.1c0.2-0.1,0.3-0.2,0.4-0.4
		c0.1-0.2,0.2-0.5,0.2-1v-3.2c0-0.9,0-1.5-0.1-1.7c-0.1-0.2-0.1-0.3-0.3-0.4c-0.1-0.1-0.3-0.1-0.5-0.1c-0.2,0-0.5,0-0.8,0.1
		l-0.2-0.3l3.1-1H89.4L89.4,63.5z M99,63.5v2.8h-0.4c-0.3-0.9-0.7-1.5-1.1-1.8c-0.5-0.3-1-0.5-1.7-0.5c-0.5,0-1,0.1-1.3,0.3
		c-0.3,0.2-0.5,0.5-0.5,0.7c0,0.3,0.1,0.6,0.4,0.9c0.2,0.2,0.7,0.5,1.4,0.8l1.7,0.6c1.5,0.6,2.3,1.4,2.3,2.3c0,0.7-0.4,1.3-1.1,1.8
		c-0.7,0.5-1.5,0.7-2.4,0.7c-0.6,0-1.4-0.1-2.2-0.3c-0.2-0.1-0.5-0.1-0.6-0.1c-0.2,0-0.3,0.1-0.4,0.2h-0.4v-2.9h0.4
		c0.2,0.8,0.6,1.5,1.2,1.9c0.6,0.4,1.3,0.6,2,0.6c0.5,0,0.9-0.1,1.3-0.4c0.3-0.2,0.5-0.5,0.5-0.9c0-0.4-0.2-0.8-0.5-1
		c-0.4-0.3-1.1-0.6-2.2-1.1c-1.1-0.4-1.8-0.8-2.2-1.2c-0.3-0.3-0.5-0.8-0.5-1.3c0-0.7,0.3-1.2,0.9-1.7c0.6-0.5,1.3-0.7,2.3-0.7
		c0.4,0,0.9,0.1,1.5,0.2c0.4,0.1,0.6,0.1,0.8,0.1c0.1,0,0.2,0,0.3-0.1c0.1,0,0.1-0.1,0.2-0.3H99L99,63.5z M104.3,61v2.7h2.4v0.6
		h-2.4v5.3c0,0.5,0.1,0.9,0.3,1.1c0.2,0.2,0.4,0.3,0.7,0.3c0.3,0,0.5-0.1,0.7-0.2c0.2-0.1,0.4-0.3,0.5-0.5h0.4
		c-0.3,0.6-0.6,1-1.1,1.3c-0.5,0.3-1,0.4-1.5,0.4c-0.3,0-0.7-0.1-1-0.2c-0.3-0.2-0.6-0.4-0.7-0.7c-0.2-0.3-0.2-0.7-0.2-1.3v-5.5
		h-1.6v-0.3c0.4-0.1,0.8-0.4,1.3-0.7c0.4-0.3,0.8-0.7,1.2-1.1c0.2-0.2,0.4-0.6,0.7-1.2H104.3L104.3,61z M109.5,66.8
		c0,1.2,0.4,2.2,1.1,2.9c0.8,0.7,1.6,1,2.7,1c0.7,0,1.3-0.1,1.8-0.4c0.5-0.3,0.9-0.8,1.3-1.5l0.4,0.2c-0.2,0.8-0.6,1.6-1.4,2.2
		c-0.8,0.7-1.7,1-2.9,1c-1.2,0-2.3-0.4-3.2-1.2c-0.9-0.8-1.3-1.8-1.3-3.1c0-1.4,0.5-2.5,1.4-3.3c0.9-0.8,2-1.2,3.4-1.2
		c1.2,0,2.1,0.3,2.9,0.9c0.7,0.6,1.1,1.4,1.1,2.4H109.5L109.5,66.8z M109.5,66.3h4.8c0-0.5-0.1-0.9-0.2-1.1
		c-0.2-0.3-0.5-0.6-0.8-0.8c-0.4-0.2-0.8-0.3-1.2-0.3c-0.6,0-1.2,0.2-1.7,0.6C109.9,65.1,109.6,65.6,109.5,66.3L109.5,66.3z
		 M121.1,63.5v1.9c0.9-1.2,1.8-1.9,2.7-1.9c0.4,0,0.8,0.1,1,0.3c0.3,0.2,0.4,0.4,0.4,0.7c0,0.2-0.1,0.4-0.3,0.6
		c-0.2,0.2-0.4,0.2-0.7,0.2c-0.3,0-0.6-0.1-0.9-0.3c-0.3-0.2-0.6-0.3-0.7-0.3c-0.1,0-0.3,0.1-0.4,0.2c-0.3,0.2-0.7,0.6-1.1,1.2V70
		c0,0.5,0.1,0.8,0.2,1c0.1,0.2,0.3,0.3,0.5,0.4c0.3,0.1,0.6,0.2,1.1,0.2v0.3h-5.3v-0.3c0.5,0,0.9-0.1,1.2-0.2
		c0.2-0.1,0.3-0.2,0.4-0.5c0-0.1,0.1-0.4,0.1-0.9v-3.2c0-1,0-1.5-0.1-1.7c0-0.2-0.1-0.3-0.3-0.4c-0.1-0.1-0.3-0.1-0.5-0.1
		c-0.2,0-0.5,0-0.8,0.1l-0.1-0.3l3.1-1H121.1L121.1,63.5z M129.3,63.5v6.6c0,0.5,0.1,0.9,0.1,1c0.1,0.2,0.2,0.3,0.4,0.4
		c0.2,0.1,0.5,0.1,1,0.1v0.3h-5v-0.3c0.5,0,0.8,0,1-0.1c0.2-0.1,0.3-0.2,0.4-0.4c0.1-0.2,0.2-0.5,0.2-1v-3.2c0-0.9,0-1.5-0.1-1.7
		c-0.1-0.2-0.1-0.3-0.3-0.4c-0.1-0.1-0.3-0.1-0.5-0.1c-0.2,0-0.5,0-0.8,0.1l-0.2-0.3l3.1-1H129.3L129.3,63.5z M130.7,59.5l-3.3,3.1
		H127l1.2-3.1H130.7L130.7,59.5z M138.1,70.8c-1.1,0.7-1.7,1-2,1.1c-0.4,0.2-0.8,0.2-1.3,0.2c-0.7,0-1.3-0.2-1.8-0.6
		c-0.5-0.4-0.7-0.9-0.7-1.5c0-0.4,0.1-0.7,0.3-1c0.3-0.4,0.8-0.8,1.6-1.1c0.8-0.4,2-0.8,3.8-1.3v-0.3c0-0.8-0.2-1.4-0.5-1.7
		c-0.3-0.3-0.8-0.5-1.4-0.5c-0.5,0-0.9,0.1-1.1,0.3c-0.3,0.2-0.4,0.4-0.4,0.7l0,0.5c0,0.3-0.1,0.5-0.3,0.6c-0.2,0.2-0.4,0.2-0.7,0.2
		c-0.3,0-0.5-0.1-0.7-0.2c-0.2-0.2-0.3-0.4-0.3-0.6c0-0.5,0.3-1,1-1.4c0.7-0.4,1.6-0.6,2.8-0.6c0.9,0,1.7,0.1,2.3,0.4
		c0.4,0.2,0.8,0.5,1,0.9c0.1,0.3,0.2,0.8,0.2,1.6v2.8c0,0.8,0,1.3,0.1,1.4c0,0.2,0.1,0.3,0.2,0.4c0.1,0.1,0.2,0.1,0.3,0.1
		c0.1,0,0.2,0,0.3-0.1c0.2-0.1,0.5-0.3,0.9-0.7v0.5c-0.8,0.9-1.7,1.3-2.4,1.3c-0.4,0-0.7-0.1-0.9-0.3
		C138.2,71.6,138.1,71.3,138.1,70.8L138.1,70.8z M138.1,70.2V67c-1.1,0.4-1.9,0.6-2.2,0.8c-0.6,0.3-1,0.5-1.3,0.8
		c-0.3,0.3-0.4,0.6-0.4,0.9c0,0.4,0.2,0.8,0.5,1.1c0.3,0.3,0.7,0.4,1.1,0.4C136.4,71.1,137.2,70.8,138.1,70.2z"/>
	<g>
		<path class="st0" d="M61.6,5.7c-1-0.8-2.3-1.2-4.1-1.2c-2.1,0-4.7,0.5-7.7,1.5c-3.1,1-6.3,2.5-9.7,4.3c-2.6-2.8-5.4-4.8-8.2-6
			C29,3,26,2.3,22.6,2.3c-4.8,0-8.9,1.4-12.1,4.2c-3.3,2.8-4.9,6.2-4.9,10.2c0,3.6,1.2,6.7,3.5,9.2c2.3,2.5,5.5,4.2,9.6,5.1
			c-1,2.3-1.7,4.4-2.2,6.4c-0.5,2-0.7,3.9-0.7,5.7c0,3.7,1,6.7,3.1,9.1c2,2.3,4.6,3.5,7.8,3.5H28c0.3,1.7,0.6,3.2,1,4.3
			c0.4,1.1,0.8,1.7,1.1,1.7c0.1,0,0.2,0,0.3-0.1c0.1-0.1,0.1-0.2,0.1-0.3c0,0-0.2-0.7-0.6-1.9c-0.4-1.3-0.6-2.5-0.7-3.7
			c4.9-0.7,9.2-2.8,12.8-6.4c3.6-3.5,5.4-7.1,5.4-10.6c0-1.9-0.5-3.5-1.6-4.6c-1.1-1.2-2.6-1.7-4.5-1.7c-3.6,0-6.7,1.8-9.5,5.4
			c-2.8,3.6-4.2,8-4.2,13.1c0,0.4,0,1,0,1.6c0,0.6,0.1,1.3,0.2,2c-2.3-0.2-4.1-1-5.2-2.4c-1.1-1.5-1.7-3.6-1.7-6.3
			c0-2.2,0.3-4.5,0.9-7c0.6-2.5,1.5-5,2.6-7.5c3.5-0.2,6.9-0.8,10.4-1.7c3.4-0.9,6.9-2.1,10.4-3.7c5.6-2.6,10-5.3,13.2-8.3
			c3.2-2.9,4.7-5.7,4.7-8.3C63,7.6,62.5,6.5,61.6,5.7z M29.1,53.5c0-1.7,0.2-3.5,0.8-5.4c0.5-1.8,1.3-3.7,2.3-5.6
			c1.5-2.7,3.1-4.8,4.8-6.3c1.7-1.4,3.5-2.2,5.3-2.2c1.2,0,2.2,0.4,2.9,1.3c0.7,0.9,1.1,2,1.1,3.4c0,3.4-1.7,6.7-5.2,10
			c-3.5,3.3-7.5,5.2-12,5.6V53.5z M20.9,27.3c-4.1-0.4-7.4-1.8-9.9-4c-2.5-2.2-3.8-4.9-3.8-8.1c0-3.3,1.5-6.1,4.5-8.4
			c3-2.3,6.7-3.5,11.2-3.5c3.1,0,5.9,0.6,8.6,1.8c2.7,1.2,5.2,3.1,7.6,5.6c-3.7,2.1-7.1,4.5-10.1,7.3C25.9,20.9,23.2,23.9,20.9,27.3
			z M57.9,16.4c-2.7,2.6-6.3,4.9-10.8,6.8c-3.3,1.5-6.6,2.6-9.9,3.3c-3.3,0.7-6.6,1.1-9.9,1.1h-1.3c1.5-2.7,3.4-5.4,5.7-7.9
			c2.4-2.5,5.2-5,8.6-7.4c0.9,1.3,1.9,2.8,2.8,4.3c0.9,1.6,1.4,2.4,1.6,2.4c0.1,0,0.1,0,0.2-0.2c0.1-0.1,0.1-0.2,0.1-0.4
			c0-0.2-0.3-0.9-1-2.1c-0.6-1.1-1.6-2.7-2.9-4.7c3.2-2.1,6.1-3.6,9-4.7c2.8-1.1,5.3-1.6,7.3-1.6c1.4,0,2.5,0.3,3.2,1
			c0.8,0.7,1.2,1.7,1.2,2.9C61.9,11.5,60.6,13.8,57.9,16.4z"/>
	</g>
	<g>
		<path class="st0" d="M172.8,44.6c0-0.1-0.1-0.1-0.2-0.1c-0.1,0-0.2,0-0.3,0.1c-0.1,0-0.2,0.1-0.3,0.1l-0.9,1.1
			c-0.9,1-1.9,1.7-2.9,2.3c-1.1,0.6-2,0.8-3,0.8c-0.2,0-0.5,0-0.8-0.1c-0.2,0-0.3-0.1-0.3-0.1c1.4-1.8,2.4-3.3,3-4.7
			c0.6-1.4,0.9-2.7,0.9-3.9c0-1.6-0.4-2.8-1.3-3.7c-0.9-0.9-2.1-1.4-3.6-1.4c-1.8,0-3.8,0.7-6,2c-2.2,1.3-4.3,3.1-6.5,5.4
			c-0.7,0.7-1.2,1.4-1.6,1.8c0,0,0,0,0,0c-0.1,0.1-1.8,2-1.8,2s0,0,0,0c0,0-0.1,0.1-0.1,0.1c-0.7,0.8-1.4,1.5-1.9,2.1
			c-1.9,2-3.5,3.5-4.8,4.5c-1.3,1-2.3,1.6-2.9,1.6c-0.4,0-0.7-0.1-0.9-0.3c-0.2-0.2-0.3-0.5-0.3-0.9c0-0.5,0.2-1.2,0.7-2.1
			c0.4-0.8,1.3-2.1,2.6-3.9c0.2-0.3,0.5-0.7,0.9-1.2c2.3-3.2,3.5-5.7,3.5-7.4c0-1-0.2-1.9-0.7-2.5c-0.5-0.6-1.1-0.9-1.9-0.9
			c-1.1,0-2.7,0.8-4.6,2.4c-1.9,1.6-4.7,4.4-8.3,8.5c1-1.6,1.7-3,2.2-4.2c0.4-1.2,0.7-2.4,0.7-3.4c0-1-0.2-1.9-0.7-2.5
			c-0.5-0.6-1.2-0.9-2-0.9c-1,0-2,0.4-3.2,1.3c-1.2,0.8-2.9,2.5-5.2,4.9l-2.2,2.5c0,0-0.1,0.1-0.1,0.1l0,0c0,0-2.6,2.9-2.8,3.1h0
			c-0.5,0.5-0.9,1-1.2,1.4c-2.1,2.3-3.8,3.9-5.1,4.8c-1.3,0.9-2.3,1.4-3.2,1.4c-0.3,0-0.6-0.1-0.9-0.4c-0.2-0.3-0.4-0.6-0.4-0.9
			c0-0.5,0.2-1.1,0.6-1.9c0.4-0.8,1.4-2.4,2.9-4.8l7-11l-5.1,0.3c-2.9,3-5.1,5.3-6.7,7.1c-0.5,0.6-0.9,1.1-1.3,1.5l0,0l-1.4,1.6v0
			c-0.2,0.2-0.4,0.4-0.7,0.6c-1.2,1.1-2.4,1.7-3.6,1.7c-0.5,0-0.9-0.2-1.3-0.5c-0.3-0.3-0.5-0.8-0.5-1.4c0-1.1,0.2-2,0.7-2.8
			c0.4-0.8,1.2-1.6,2.2-2.4c0.3-0.2,0.6-0.4,1.1-0.8c2.8-2,4.1-3.5,4.1-4.3c0-0.3-0.2-0.6-0.5-0.8c-0.3-0.2-0.7-0.3-1.2-0.3
			c-1.3,0-2.4,0.4-3.2,1.3c-0.8,0.9-1.7,2.5-2.6,4.9c-1.5,1.2-3.5,3.1-6,5.6l-0.1,0.1c1.4-2.4,2.3-4.2,2.8-5.3
			c0.4-1.2,0.6-2.3,0.6-3.5c0-0.9-0.3-1.6-0.8-2.2c-0.5-0.6-1.2-0.9-2-0.9c-1,0-2,0.4-3.2,1.3c-1.2,0.8-2.9,2.5-5.2,4.9l-2.2,2.5
			c-0.2,0.2-0.4,0.4-0.5,0.6l0,0l-1.5,1.6l0,0c-0.1,0.1-0.2,0.2-0.3,0.3c-0.7,0.8-1.4,1.5-1.9,2c-1.9,2-3.5,3.5-4.8,4.5
			c-1.3,1-2.2,1.5-2.8,1.5c-0.4,0-0.7-0.1-0.8-0.3c-0.2-0.2-0.2-0.5-0.2-0.9c0-0.5,0.2-1.1,0.4-1.8c0.3-0.7,1-1.9,2.2-3.7l7.8-12.3
			l-4.7,0.3l-2.9,4.3c0.1-0.3,0.2-0.6,0.2-0.8c0-0.3,0.1-0.5,0.1-0.7c0-1-0.3-1.8-1-2.4c-0.7-0.6-1.6-0.9-2.7-0.9
			c-1.9,0-3.9,0.6-6.1,1.8c-2.2,1.2-4.4,2.9-6.7,5.1c-1,1-1.8,1.9-2.4,2.6c-0.6,0.7-0.9,1.2-0.9,1.4c0,0.1,0,0.2,0.1,0.2
			c0.1,0,0.2,0.1,0.3,0.1c0.2,0,0.4-0.1,0.7-0.4c0.2-0.2,0.5-0.6,0.8-1c-0.1,0.5-0.2,1.1-0.3,1.6c-0.1,0.6-0.1,1.1-0.1,1.7
			c0,2.3,0.4,4,1.1,5.3c0.7,1.3,1.7,1.9,3,1.9c1.3,0,2.7-0.5,4.2-1.6c1.5-1.1,3.1-2.6,4.7-4.7c-0.1,0.7-0.2,1.3-0.3,1.7
			c0,0.4-0.1,0.7-0.1,1c0,1.2,0.2,2,0.7,2.6c0.5,0.6,1.2,0.9,2.2,0.9c1,0,2.2-0.4,3.3-1.2c1.2-0.8,3-2.4,5.5-5c1-1,1.8-1.9,2.4-2.5
			l0,0l1-1.1c0.1-0.2,0.3-0.3,0.5-0.5l0,0l0,0c0.1-0.1,0.1-0.2,0.2-0.3c0.7-0.8,1.3-1.5,1.7-2c2.4-2.5,4.1-4.3,5.3-5.2
			c1.2-1,2.2-1.5,3-1.5c0.3,0,0.6,0.1,0.7,0.2c0.2,0.2,0.2,0.4,0.2,0.7c0,0.6-0.7,1.9-2,3.8L88,41.3l-9.2,13.7l5-0.5
			c2.2-2.8,4.1-5.1,5.8-6.9c1.7-1.9,3.2-3.4,4.7-4.5c-0.3,0.9-0.6,1.5-0.7,2.1c-0.1,0.5-0.2,1-0.2,1.3c0,0.9,0.3,1.6,0.8,2.1
			c0.5,0.5,1.2,0.7,2.2,0.7c1.1,0,2.3-0.5,3.6-1.6c0.1-0.1,0.3-0.2,0.4-0.3l0,0c0.2-0.1,0.4-0.3,0.6-0.5c0.3-0.3,0.6-0.6,0.8-0.9
			c0.6-0.7,1.1-1.4,1.1-1.4l0,0c0.2-0.2,0.4-0.5,0.6-0.7c1.4-1.6,2.7-3,4-4.3c-0.2,0.3-0.5,0.7-0.8,1.3c-3.3,4.9-4.9,8.3-4.9,10.1
			c0,1.4,0.4,2.4,1.1,3.2c0.7,0.8,1.6,1.2,2.8,1.2c0.9,0,2-0.4,3.3-1.3c1.2-0.8,3-2.5,5.4-4.9c1.4-1.4,2.3-2.4,2.7-2.9
			c0,0,0.1-0.1,0.1-0.1c0.4-0.4,0.8-0.9,1.3-1.6c0.6-0.8,1.2-1.4,1.7-1.9c2.4-2.5,4.1-4.3,5.3-5.2c1.2-1,2.2-1.5,3-1.5
			c0.3,0,0.6,0.1,0.7,0.2c0.2,0.2,0.2,0.4,0.2,0.7c0,0.6-0.6,1.8-1.8,3.6c-0.2,0.3-0.4,0.5-0.4,0.6l-9.2,13.8l5-0.5
			c4.5-5.7,8.4-10.2,11.7-13.5c3.3-3.3,5.5-5,6.6-5c0.3,0,0.5,0.1,0.6,0.2c0.1,0.1,0.2,0.3,0.2,0.6c0,0.6-0.7,1.7-2,3.4
			c-0.5,0.6-0.8,1-1.1,1.3c-1.9,2.4-3.1,4.1-3.7,5.3c-0.6,1.2-0.9,2.3-0.9,3.4c0,1.5,0.3,2.7,0.9,3.6c0.6,0.9,1.4,1.4,2.5,1.4
			c0.7,0,1.7-0.5,3-1.5c1.3-1,3-2.5,4.9-4.5l0.4-0.4c0.7-0.7,1.3-1.3,1.7-1.8l0,0c0,0,0,0,0,0c0.3-0.4,0.6-0.7,0.8-0.9
			c0.3-0.3,0.5-0.6,0.7-0.8c0,0,0.1-0.1,0.1-0.1c0.1-0.1,0.1-0.1,0.1-0.1l0,0c0.1-0.1,0.2-0.2,0.3-0.4c-0.2,0.7-0.3,1.3-0.4,1.8
			c-0.1,0.5-0.1,1-0.1,1.5c0,2.4,0.4,4.2,1.2,5.5c0.8,1.3,2,1.9,3.5,1.9c1.3,0,2.8-0.5,4.4-1.5c1.6-1,3.3-2.4,5-4.2
			c0.2,0,0.4,0,0.6,0.1c0.2,0,0.6,0,1,0c1.3,0,2.6-0.3,3.9-1c1.3-0.6,2.4-1.5,3.3-2.7l0.8-0.9c0,0,0-0.1,0.1-0.1c0,0,0-0.1,0-0.2
			C172.8,44.7,172.8,44.6,172.8,44.6z M61.9,49.7c-1.3,1.4-2.5,2.5-3.7,3.3c-1.2,0.8-2.1,1.2-2.9,1.2c-0.5,0-1-0.2-1.3-0.6
			c-0.3-0.4-0.4-0.9-0.4-1.6c0-1.2,0.4-2.8,1.1-4.6c0.7-1.8,1.7-3.7,3-5.5c1.3-1.8,2.7-3.2,4-4.2c1.4-1,2.6-1.5,3.8-1.5
			c0.6,0,1.2,0.2,1.6,0.6c0.4,0.4,0.7,1,0.7,1.6c0,1.5-0.5,3.2-1.6,5.2C65.3,45.5,63.8,47.6,61.9,49.7z M161,50.1
			c-1.2,1.3-2.4,2.3-3.7,3.1c-1.2,0.8-2.2,1.2-3,1.2c-0.7,0-1.3-0.2-1.7-0.6c-0.4-0.4-0.5-1-0.5-1.9c0-1.3,0.3-2.8,1-4.6
			c0.7-1.7,1.7-3.5,2.9-5.3c1.4-1.9,2.6-3.4,3.8-4.3c1.2-1,2.3-1.4,3.4-1.4c0.9,0,1.5,0.3,2,1c0.5,0.6,0.7,1.5,0.7,2.6
			c0,1.5-0.4,3.2-1.3,5.1C163.8,46.7,162.5,48.4,161,50.1z"/>
	</g>
</g>
</svg>
