<?xml version="1.0" encoding="utf-8"?>
<!-- Generator: Adobe Illustrator 22.0.0, SVG Export Plug-In . SVG Version: 6.00 Build 0)  -->
<svg version="1.1" id="Capa_1" xmlns="http://www.w3.org/2000/svg" xmlns:xlink="http://www.w3.org/1999/xlink" x="0px" y="0px"
	 viewBox="0 0 500 500" style="enable-background:new 0 0 500 500;" xml:space="preserve">
<style type="text/css">
	.st0{display:none;}
	.st1{display:inline;}
	.st2{fill:#FFFFFF;}
	.st3{fill:#C1C1C1;}
</style>
<g id="youtube" class="st0">
	<g class="st1">
		<path class="st2" d="M280,297.7c-1,0.5-1.9,1.2-2.8,2.2v45.6c1.1,1.2,2.2,2.1,3.2,2.6c2.2,1.1,5.5,1.2,7-0.8c0.8-1,1.2-2.7,1.2-5
			v-37.8c0-2.5-0.5-4.4-1.5-5.6C285.5,296.7,282.4,296.5,280,297.7z"/>
		<path class="st2" d="M333,297.2c-5,0-6.1,3.6-6.1,8.6v7.4h12v-7.4C338.9,300.9,337.9,297.2,333,297.2z"/>
		<path class="st2" d="M291.6,219.3c4.3,0,10.3-2.2,16.5-9.6v8.5h14.3v-76.9h-14.3v58.4c-1.8,2.2-5.6,5.8-8.4,5.8
			c-3.1,0-3.8-2.1-3.8-5.2v-59h-14.3v64.3C281.7,213.1,284,219.3,291.6,219.3z"/>
		<path class="st2" d="M228,199c0,13.5,7.1,20.6,20.9,20.6c11.5,0,20.5-7.7,20.5-20.6v-37.7c0-12-9-20.7-20.5-20.7
			c-12.6,0-20.9,8.3-20.9,20.7L228,199L228,199z M242.8,162.6c0-4.2,1.9-7.3,6-7.3c4.4,0,6.3,3,6.3,7.3v35.8c0,4.2-2.1,7.3-6,7.3
			c-3.9,0-6.2-3.2-6.2-7.3V162.6z"/>
		<polygon class="st2" points="193.9,218.2 210,218.2 210,175.9 228.8,113.9 212.4,113.9 202.1,155.6 191,113.9 174.8,113.9 
			193.9,175.9 		"/>
		<path class="st2" d="M341.7,235.7H173.2c-18.1,0-32.8,14.7-32.8,32.8v82.8c0,18.1,14.7,32.8,32.8,32.8h168.5
			c18.1,0,32.8-14.7,32.8-32.8v-82.8C374.5,250.3,359.8,235.7,341.7,235.7z M195.7,359.5h-15.3v-84.9h-15.9v-14.4h47.1v14.4h-15.9
			V359.5z M250.2,359.5h-13.6v-8.1c-2.5,3-5.1,5.2-7.8,6.8c-7.3,4.2-17.4,4.1-17.4-10.7v-61.2H225v56.1c0,3,0.7,4.9,3.6,4.9
			c2.6,0,6.4-3.4,8-5.5v-55.6h13.6V359.5z M302.6,344.3c0,9.1-3.4,16.1-12.4,16.1c-5,0-9.1-1.8-12.9-6.5v5.6h-13.7v-99.3h13.7v32
			c3.1-3.7,7.2-6.8,12.1-6.8c10,0,13.3,8.4,13.3,18.3L302.6,344.3L302.6,344.3z M352.9,324.6h-26v13.8c0,5.5,0.5,10.2,5.9,10.2
			c5.7,0,6.1-3.9,6.1-10.2v-5.1h14v5.5c0,14.1-6.1,22.6-20.4,22.6c-13,0-19.6-9.5-19.6-22.6V306c0-12.7,8.4-21.5,20.7-21.5
			c13.1,0,19.4,8.3,19.4,21.5L352.9,324.6L352.9,324.6z"/>
		<path class="st2" d="M250,0C112.2,0,0,112.2,0,250c0,137.9,112.2,250,250,250c137.9,0,250-112.1,250-250C500,112.2,387.9,0,250,0z
			 M250,464.5c-118.5,0-214.5-96-214.5-214.5S131.5,35.5,250,35.5c118.5,0,214.5,96,214.5,214.5S368.5,464.5,250,464.5z"/>
	</g>
</g>
<g id="facebook" class="st0">
	<g class="st1">
		<path class="st2" d="M215.4,170.3c0,30.1,0,36.8,0,36.8h-28.6v46.7h28.6v137.3h55.1V253.3h38.4l4.1-46.2h-42.5c0,0,0-17.2,0-26.3
			c0-10.9,2.2-15.2,12.7-15.2c8.5,0,29.8,0,29.8,0v-47.9c0,0-31.4,0-38.1,0C233.9,117.7,215.4,135.8,215.4,170.3z"/>
		<path class="st2" d="M250,0C112.2,0,0,112.2,0,250s112.2,250,250,250c137.9,0,250-112.1,250-250S387.9,0,250,0z M250,464.5
			c-118.5,0-214.5-96-214.5-214.5c0-118.5,96-214.5,214.5-214.5c118.5,0,214.5,96,214.5,214.5C464.5,368.5,368.5,464.5,250,464.5z"
			/>
	</g>
</g>
<g id="twitter">
	<g>
		<path class="st3" d="M379.9,166.2c-9.6,5.7-20.1,9.8-31.4,12c-9-9.6-21.9-15.6-36.1-15.6c-31.9,0-55.4,29.8-48.2,60.7
			c-41.1-2.1-77.5-21.7-101.9-51.7c-13,22.2-6.7,51.3,15.3,66c-8.1-0.3-15.7-2.5-22.4-6.2c-0.5,22.9,15.9,44.3,39.7,49.1
			c-7,1.9-14.6,2.3-22.3,0.8c6.3,19.7,24.5,33.9,46.2,34.3c-20.8,16.3-47,23.6-73.2,20.5c21.9,14,47.9,22.2,75.8,22.2
			c91.8,0,143.7-77.6,140.6-147.1c9.7-7,18-15.7,24.7-25.6c-8.9,3.9-18.4,6.6-28.4,7.8C368.3,187.5,376.2,177.8,379.9,166.2z"/>
		<path class="st3" d="M250,0C112.2,0,0,112.2,0,250c0,137.9,112.2,250,250,250s250-112.1,250-250C500,112.2,387.9,0,250,0z
			 M250,464.5c-118.5,0-214.5-96-214.5-214.5c0-118.5,96-214.5,214.5-214.5c118.5,0,214.5,96,214.5,214.5
			C464.5,368.5,368.5,464.5,250,464.5z"/>
	</g>
</g>
</svg>
